<!DOCTYPE svg PUBLIC "-//W3C//DTD SVG 20010904//EN" "http://www.w3.org/TR/2001/REC-SVG-20010904/DTD/svg10.dtd">
<svg version="1.0" xmlns="http://www.w3.org/2000/svg" width="255px" height="80px" viewBox="0 0 2550 800" preserveAspectRatio="xMidYMid meet">
<g id="layer101" fill="#ffffff" stroke="none">
 <path d="M239 790 c-99 -17 -165 -68 -208 -160 -26 -55 -26 -57 -29 -342 l-3 -288 80 0 80 0 3 257 c3 280 5 289 63 343 35 33 119 35 162 4 59 -43 63 -63 63 -346 l0 -258 85 0 85 0 0 233 c0 263 -9 339 -48 417 -55 110 -188 166 -333 140z"/>
 <path d="M920 475 l0 -305 -120 0 -120 0 0 -85 0 -85 325 0 325 0 0 85 0 85 -120 0 -120 0 0 305 0 305 -85 0 -85 0 0 -305z"/>
 <path d="M1400 389 l0 -391 183 4 c203 5 227 11 295 73 53 47 77 110 77 200 -1 87 -17 136 -63 187 -59 65 -101 81 -224 86 l-108 4 0 114 0 114 -80 0 -80 0 0 -391z m356 -33 c26 -26 34 -42 34 -70 0 -85 -41 -116 -155 -116 l-75 0 0 110 0 110 81 0 c79 0 82 -1 115 -34z"/>
 <path d="M2010 390 l0 -390 85 0 85 0 0 310 0 310 185 0 185 0 0 80 0 80 -270 0 -270 0 0 -390z"/>
 </g>

</svg>